<svg height="280" viewBox="0 0 264 280" width="264" xmlns="http://www.w3.org/2000/svg" xmlns:xlink="http://www.w3.org/1999/xlink"><defs><circle id="a" cx="120" cy="120" r="120"/><path id="b" d="m124 144.610951v18.389049h4c39.764502 0 72 32.235498 72 72v9h-200v-9c0-39.764502 32.235498-72 72-72h4v-18.389049c-17.2373655-8.188579-29.6277754-24.92394-31.6948612-44.7297125-5.8248283-.8234519-10.3051388-5.8291289-10.3051388-11.8812385v-14c0-5.9459926 4.3245733-10.8819269 10-11.8340831v-6.1659169c0-30.927946 25.072054-56 56-56 30.927946 0 56 25.072054 56 56v6.1659169c5.675427.9521562 10 5.8880905 10 11.8340831v14c0 6.0521096-4.48031 11.0577866-10.305139 11.8812385-2.067086 19.8057725-14.457496 36.5411335-31.694861 44.7297125z"/><mask id="c" fill="#fff"><use fill="#fff" fill-rule="evenodd" xlink:href="#a"/></mask><mask id="d" fill="#fff"><path d="m12 160c0 66.27417 53.72583 120 120 120s120-53.72583 120-120h12v-160h-264v160z" fill="#fff" fill-rule="evenodd"/></mask><mask id="e" fill="#fff"><use fill="#fff" fill-rule="evenodd" xlink:href="#b"/></mask><mask id="f" fill="#fff"><use fill="#fff" fill-rule="evenodd" xlink:href="#j"/></mask><mask id="g" fill="#fff"><path d="m0 0h264v280h-264z" fill="#fff" fill-rule="evenodd"/></mask><mask id="h" fill="#fff"><use fill="#fff" fill-rule="evenodd" xlink:href="#k"/></mask><filter id="i" height="109.8%" width="101.5%" x="-.8%" y="-2.4%"><feOffset dx="0" dy="2" in="SourceAlpha" result="shadowOffsetOuter1"/><feColorMatrix in="shadowOffsetOuter1" result="shadowMatrixOuter1" type="matrix" values="0 0 0 0 0   0 0 0 0 0   0 0 0 0 0  0 0 0 0.2 0"/><feMerge><feMergeNode in="shadowMatrixOuter1"/><feMergeNode in="SourceGraphic"/></feMerge></filter><path id="j" d="m108 13.0708856c-17.9186994 2.0050524-31.7201576 7.4809485-31.995797 21.574082-25.8577701 10.9231257-44.004203 36.5196581-44.004203 66.3545174v9.000515h200v-9.000515c0-29.8348593-18.146433-55.4313917-44.004203-66.3545018-.275639-14.0931491-14.077098-19.5690452-31.995797-21.5740976v18.9291144c0 13.254834-10.745166 24-24 24-13.254834 0-24-10.745166-24-24z"/><path id="k" d="m167.308863 35.006118c-20.187772-11.6996071-40.179909-9.7841326-55.271969-5.9761473-15.0920602 3.8079852-24.0200698 14.6213341-31.6802148 30.6180911-3.7610744 7.8547951-5.990661 17.143418-6.3336223 25.8333033-.134614 3.4119015.3253736 6.9337889 1.2446721 10.2189895.3372115 1.2058327 2.1555151 5.3866324 2.6547368 2.0084954.166069-1.124597-.4420615-2.6760995-.5009129-3.8712346-.0771155-1.5682177.0057499-3.1568279.1126293-4.7227056.1998917-2.9274957.7217746-5.7994971 1.6505435-8.5902628 1.3271992-3.9879065 3.0166387-8.311788 5.6027156-11.6765528 6.4009292-8.3275003 17.4812167-8.8022112 26.2788157-13.3845094-.763376 1.4050776-3.70662 3.6796787-2.686868 5.2632744.704187 1.0938411 3.370085.762212 4.64283.7271101 3.348777-.0915991 6.712774-.6742902 10.020625-1.1469953 5.213079-.7451625 10.097741-2.2552114 15.003711-4.0888662 4.016435-1.5016913 8.603457-2.8923939 11.622125-6.0776377 4.871133 5.0476486 11.141169 9.7940898 17.401734 13.0024005 5.617936 2.8793561 14.678337 4.3181984 18.112347 10.157812 4.065139 6.9140651 2.194749 15.4067113 3.436377 22.9001243.472164 2.8496031 1.545017 2.7857511 2.132177.2370212.997091-4.3295647 1.467902-8.8276183 1.150646-13.2785352-.718393-10.0478261-4.405325-36.4535678-24.593098-48.1531749z"/></defs><g fill="none" fill-rule="evenodd"><g transform="translate(12 40)"><use fill="#e6e6e6" xlink:href="#a"/><g fill="#65c9ff" mask="url(#c)"><path d="m0 0h240v240h-240z"/></g></g><g mask="url(#d)"><g transform="translate(32 36)"><use fill="#d0c6ac" xlink:href="#b"/><g fill="#edb98a" mask="url(#e)"><path d="m0 0h264v280h-264z"/></g><path d="m156 79v23c0 30.927946-25.072054 56-56 56s-56-25.072054-56-56v-23 15c0 30.927946 25.072054 56 56 56s56-25.072054 56-56z" fill="#000" fill-opacity=".1" mask="url(#e)"/></g><g fill-rule="evenodd" transform="translate(0 170)"><use fill="#b7c1db" xlink:href="#j"/><g fill="#25557c" mask="url(#f)"><path d="m0 0h264v110h-264z"/></g><path d="m102 61.7390531v48.2609469h-7v-51.8497375c2.2037542 1.3097951 4.5467694 2.5105253 7 3.5887906zm67-3.5887906v40.3497375c0 1.932997-1.567003 3.5-3.5 3.5s-3.5-1.567003-3.5-3.5v-36.7609469c2.453231-1.0782653 4.796246-2.2789955 7-3.5887906z" fill="#f4f4f4" mask="url(#f)"/><path d="m90.9601329 12.7243537c-15.0508234 2.8468245-25.4601329 8.518531-25.4601329 19.5833386 0 19.7123172 33.0376807 35.6923077 66.5 35.6923077 33.462319 0 66.5-15.9799905 66.5-35.6923077 0-11.0648076-10.40931-16.7365141-25.460133-19.5833386 9.085054 3.3501061 14.960133 8.9817009 14.960133 18.3525694 0 20.3920523-27.821205 36.9230769-56 36.9230769s-56-16.5310246-56-36.9230769c0-9.3708685 5.8750795-15.0024633 14.9601329-18.3525694z" fill="#000" fill-opacity=".16" mask="url(#f)"/></g><g fill="#000" transform="translate(76 82)"><path d="m40 16c0 5.371763 6.1581544 9 14 9s14-3.628237 14-9c0-1.1045695-.949699-2-2-2-1.2927252 0-1.8697684.9051755-2 2-1.2424242 2.9378973-4.3167405 4.7163149-10 5-5.6832595-.2836851-8.7575758-2.0621027-10-5-.1302316-1.0948245-.7072748-2-2-2-1.050301 0-2 .8954305-2 2z" fill="#000" fill-opacity=".6" fill-rule="nonzero" transform="translate(2 52)"/><path d="m16 8c0 4.418278 5.372583 8 12 8 6.627417 0 12-3.581722 12-8" fill-opacity=".16" transform="translate(28 40)"/><g fill-opacity=".6"><g transform="translate(0 8)"><circle cx="30" cy="22" r="6"/><circle cx="82" cy="22" r="6"/></g><g fill-rule="nonzero" transform="translate(12 6)"><path d="m3.63024536 11.1585767c3.91490965-5.50870997 14.64767434-8.59773949 23.89278144-6.32739624 1.072698.26342504 2.1558397-.39262033 2.4192648-1.46531834.263425-1.07269802-.3926204-2.15583976-1.4653184-2.4192648-10.7366099-2.63661521-23.16487358.940401-28.10721856 7.89482594-.63986427.90035965-.42869103 2.14895784.47166862 2.78882214.90035965.6398642 2.14895784.428691 2.7888221-.4716687z"/><path d="m61.6302454 11.1585767c3.9149096-5.50870997 14.6476743-8.59773949 23.8927814-6.32739624 1.072698.26342504 2.1558397-.39262033 2.4192648-1.46531834.263425-1.07269802-.3926204-2.15583976-1.4653184-2.4192648-10.7366099-2.63661521-23.1648736.940401-28.1072186 7.89482594-.6398642.90035965-.428691 2.14895784.4716687 2.78882214.9003596.6398642 2.1489578.428691 2.7888221-.4716687z" transform="matrix(-1 0 0 1 146.000308 0)"/></g></g></g><g fill-rule="evenodd" mask="url(#g)"><g transform="translate(-1)"><use fill="#28354b" fill-rule="evenodd" xlink:href="#k"/><g fill="#2c1b18" mask="url(#h)"><path d="m0 0h264v280h-264z"/></g><g fill="#252c2f" fill-rule="nonzero" filter="url(#i)" transform="translate(68 92)"><path d="m34 41h-2.7578502c-13.9274373 0-22.2421498-7.6640714-22.2421498-20.5 0-10.373 1.8170058-20.5 23.5299306-20.5h2.9401388c21.7129248 0 23.5299306 10.127 23.5299306 20.5 0 12.0686429-10.2787252 20.5-25 20.5zm-1.6146394-35c-19.3853606 0-19.3853606 6.8410159-19.3853606 15.5015498 0 7.070393 3.116254 15.4984502 17.9709365 15.4984502h3.0290635c12.3649085 0 21-6.3729627 21-15.4984502 0-8.6605339 0-15.5015498-19.3853606-15.5015498z"/><path d="m96 41h-2.7578502c-13.9274373 0-22.2421498-7.6640714-22.2421498-20.5 0-10.373 1.8170058-20.5 23.5299306-20.5h2.9401388c21.7129246 0 23.5299306 10.127 23.5299306 20.5 0 12.0686429-10.278725 20.5-25 20.5zm-1.6146394-35c-19.3853606 0-19.3853606 6.8410159-19.3853606 15.5015498 0 7.070393 3.1194833 15.4984502 17.9709365 15.4984502h3.0290635c12.364909 0 21-6.3729627 21-15.4984502 0-8.6605339 0-15.5015498-19.3853606-15.5015498z"/><path d="m2.95454545 5.77156439c.69136364-.67527303 8.25500005-5.77156439 29.54545455-5.77156439 17.8513636 0 21.6302273 1.85267217 27.3502273 4.6518809l.418696.20662809c.3976781.14050997 2.4313214.83132082 4.8101373.9072862 2.1672342-.09300952 4.0209589-.68039328 4.5626374-.86859752 6.5286935-3.17511127 12.9193991-4.89719767 27.858302-4.89719767 21.290455 0 28.854091 5.09629136 29.545455 5.77156439 1.633863 0 2.954545 1.28994465 2.954545 2.8857822v2.88578221c0 1.5958375-1.320682 2.8857822-2.954545 2.8857822 0 0-6.901458 0-6.901458 2.8857822s-1.962179-4.1757269-1.962179-5.7715644v-2.81072629c-3.603243-1.379001-10.053407-3.94622716-20.681818-3.94622716-11.8415349 0-17.7389016 2.09985278-22.7977065 4.18494833l.0565701.13640493-.0024969 1.98623219-2.2172001 5.3498731-2.7386758-1.0827988c-.2445939-.0967059-.7723512-.2704431-1.5041403-.4509307-2.0400785-.5031625-4.1374418-.6563354-5.9922669-.275596-.6804933.1396847-1.311855.3493001-1.8912709.6324236l-2.6423303 1.2911381-2.6438073-5.161667.1174158-2.29444605.0807294-.1949185c-4.3627677-2.03297481-8.3855564-4.1206632-22.8248203-4.1206632-10.6278541 0-17.077869 2.56626435-20.6818182 3.94529175v2.8116617c0 1.5958375-2.95454544 8.6573466-2.95454544 5.7715644s-5.90909091-2.8857822-5.90909091-2.8857822c-1.63090909 0-2.95454545-1.2899447-2.95454545-2.8857822v-2.88578221c0-1.59583755 1.32363636-2.8857822 2.95454545-2.8857822z"/></g></g></g></g></g></svg>